<svg width="30" height="30" viewBox="0 0 30 30" fill="none" xmlns="http://www.w3.org/2000/svg">
<path d="M15 30C23.2843 30 30 23.2843 30 15C30 6.71573 23.2843 0 15 0C6.71573 0 0 6.71573 0 15C0 23.2843 6.71573 30 15 30Z" fill="#FFCC4D"/>
<path d="M15 17.5C11.9808 17.5 9.97748 17.1484 7.49998 16.6667C6.93415 16.5575 5.83331 16.6667 5.83331 18.3334C5.83331 21.6667 9.66248 25.8334 15 25.8334C20.3366 25.8334 24.1666 21.6667 24.1666 18.3334C24.1666 16.6667 23.0658 16.5567 22.5 16.6667C20.0225 17.1484 18.0191 17.5 15 17.5Z" fill="#664500"/>
<path d="M7.5 18.333C7.5 18.333 10 19.1663 15 19.1663C20 19.1663 22.5 18.333 22.5 18.333C22.5 18.333 20.8333 21.6663 15 21.6663C9.16667 21.6663 7.5 18.333 7.5 18.333Z" fill="white"/>
<path d="M9.99999 14.1668C11.1506 14.1668 12.0833 12.861 12.0833 11.2502C12.0833 9.63933 11.1506 8.3335 9.99999 8.3335C8.8494 8.3335 7.91666 9.63933 7.91666 11.2502C7.91666 12.861 8.8494 14.1668 9.99999 14.1668Z" fill="#664500"/>
<path d="M20 14.1668C21.1506 14.1668 22.0834 12.861 22.0834 11.2502C22.0834 9.63933 21.1506 8.3335 20 8.3335C18.8494 8.3335 17.9167 9.63933 17.9167 11.2502C17.9167 12.861 18.8494 14.1668 20 14.1668Z" fill="#664500"/>
</svg>
