<svg width="30" height="30" viewBox="0 0 30 30" fill="none" xmlns="http://www.w3.org/2000/svg">
<path d="M30 15C30 23.2842 23.2842 30 15 30C6.71667 30 0 23.2842 0 15C0 6.71667 6.71667 0 15 0C23.2842 0 30 6.71667 30 15Z" fill="#FFCC4D"/>
<path d="M14.9999 18.3321C11.9808 18.3321 9.97742 17.9804 7.49992 17.4987C6.93409 17.3896 5.83325 17.4987 5.83325 19.1654C5.83325 22.4987 9.66242 26.6654 14.9999 26.6654C20.3366 26.6654 24.1666 22.4987 24.1666 19.1654C24.1666 17.4987 23.0658 17.3887 22.4999 17.4987C20.0224 17.9804 18.0191 18.3321 14.9999 18.3321Z" fill="#664500"/>
<path d="M7.5 19.1675C7.5 19.1675 10 20.0008 15 20.0008C20 20.0008 22.5 19.1675 22.5 19.1675C22.5 19.1675 20.8333 22.5008 15 22.5008C9.16667 22.5008 7.5 19.1675 7.5 19.1675Z" fill="white"/>
<path d="M5.00099 16.6657C4.74765 16.6657 4.49765 16.5507 4.33349 16.3324C4.05682 15.9649 4.13182 15.4424 4.50015 15.1665C4.61932 15.0774 6.95932 13.3474 10.2135 12.7224C8.15099 11.6882 5.86182 11.6657 5.83265 11.6657C5.37265 11.664 5.00015 11.2907 5.00099 10.8307C5.00099 10.3715 5.37349 9.99902 5.83349 9.99902C6.01765 9.99902 10.3768 10.0307 13.0893 12.7432C13.3277 12.9815 13.3993 13.3399 13.2702 13.6515C13.141 13.9632 12.8368 14.1657 12.5002 14.1657C8.65599 14.1657 5.53099 16.4757 5.50015 16.499C5.35015 16.6115 5.17432 16.6657 5.00099 16.6657ZM24.9993 16.6649C24.826 16.6649 24.651 16.6115 24.501 16.4999C24.4693 16.4757 21.3252 14.1657 17.5002 14.1657C17.1635 14.1657 16.8585 13.9632 16.7302 13.6515C16.601 13.3399 16.6727 12.9815 16.911 12.7432C19.6243 10.0307 23.9827 9.99902 24.1668 9.99902C24.6268 9.99902 24.9985 10.3715 24.9993 10.8307C25.0002 11.2907 24.6277 11.664 24.1685 11.6657C24.1385 11.6657 21.8493 11.6882 19.7868 12.7224C23.041 13.3474 25.381 15.0765 25.4993 15.1665C25.8668 15.4424 25.9418 15.9632 25.6668 16.3315C25.5035 16.549 25.2535 16.6649 24.9993 16.6649Z" fill="#664500"/>
</svg>
