<svg width="30" height="30" viewBox="0 0 30 30" fill="none" xmlns="http://www.w3.org/2000/svg">
<path d="M30 15C30 23.2842 23.2842 30 15 30C6.71667 30 0 23.2842 0 15C0 6.71667 6.71667 0 15 0C23.2842 0 30 6.71667 30 15Z" fill="#FFCC4D"/>
<path d="M5.83325 17.7183C5.83325 21.0216 9.66325 25.2183 14.9999 25.2183C20.3366 25.2183 24.1666 21.0516 24.1666 17.7183C24.1666 17.7183 15.5558 20.0149 5.83325 17.7183Z" fill="#664500"/>
<path d="M10.0001 19.168V24.9688C10.0001 27.4688 11.6668 29.9688 15.0001 29.9688C18.3335 29.9688 20.0001 27.4688 20.0001 24.9688V19.2021C14.7576 20.2788 10.0001 19.168 10.0001 19.168Z" fill="#5D9040"/>
<path d="M10.2367 10.2754C9.60666 10.0321 9.01083 9.8021 9.01083 9.46877C9.01083 8.9196 9.74749 8.89127 9.89499 8.89127C10.4158 8.89127 10.675 9.08627 10.9033 9.25877C11.0783 9.39127 11.26 9.52794 11.5125 9.52794C11.9825 9.52794 12.1967 9.1971 12.1967 8.8896C12.1967 8.27627 11.445 7.84294 10.6483 7.66127V7.33377C10.6483 6.9021 10.2975 6.55127 9.86583 6.55127C9.43416 6.55127 9.08333 6.9021 9.08333 7.33377V7.68877C8.12999 7.96627 7.54583 8.6671 7.54583 9.55127C7.54583 10.6438 8.62333 11.0921 9.57416 11.4871C10.255 11.7704 10.8983 12.0379 10.8983 12.4554C10.8983 12.7604 10.515 13.0904 9.89583 13.0904C9.27083 13.0904 8.91249 12.8404 8.59583 12.6204C8.37749 12.4679 8.17083 12.3238 7.92416 12.3238C7.56583 12.3238 7.28583 12.6254 7.28583 13.0104C7.28583 13.5763 8.06166 14.1404 9.08333 14.3388V14.7304C9.08333 15.1621 9.43416 15.5121 9.86583 15.5121C10.2975 15.5121 10.6483 15.1613 10.6483 14.7304L10.6442 14.3154C11.7242 14.0529 12.3625 13.2971 12.3625 12.2663C12.3633 11.0963 11.1842 10.6413 10.2367 10.2754ZM22.245 12.2804C22.245 11.1104 21.0658 10.6554 20.1183 10.2896C19.4883 10.0463 18.8933 9.81627 18.8933 9.48294C18.8933 8.93377 19.63 8.90544 19.7775 8.90544C20.2983 8.90544 20.5567 9.10044 20.7858 9.27294C20.9617 9.40544 21.1425 9.5421 21.3942 9.5421C21.865 9.5421 22.0792 9.21127 22.0792 8.90377C22.0792 8.2896 21.3275 7.8571 20.5308 7.67544V7.34877C20.5308 6.9171 20.1792 6.56627 19.7483 6.56627C19.3167 6.56627 18.965 6.9171 18.965 7.34877V7.70377C18.0125 7.98127 17.4275 8.6821 17.4275 9.56627C17.4275 10.6588 18.505 11.1071 19.4558 11.5021C20.1367 11.7854 20.78 12.0529 20.78 12.4704C20.78 12.7754 20.3975 13.1054 19.7783 13.1054C19.1533 13.1054 18.795 12.8554 18.4792 12.6354C18.26 12.4829 18.0533 12.3388 17.8075 12.3388C17.4483 12.3388 17.1683 12.6404 17.1683 13.0254C17.1683 13.5913 17.9442 14.1554 18.965 14.3538V14.7454C18.965 15.1763 19.3175 15.5271 19.7492 15.5271C20.1808 15.5271 20.5308 15.1763 20.5308 14.7454L20.5283 14.3304C21.6075 14.0663 22.245 13.3113 22.245 12.2804Z" fill="#664500"/>
<path d="M17.4751 25.8911C17.4751 24.7511 16.326 24.307 15.4026 23.9503C14.7885 23.7136 14.2076 23.4886 14.2076 23.1645C14.2076 22.6286 14.9251 22.602 15.0693 22.602C15.5768 22.602 15.8293 22.7928 16.0526 22.9603C16.2235 23.0895 16.401 23.2228 16.6468 23.2228C17.1051 23.2228 17.3143 22.8995 17.3143 22.6003C17.3143 22.0028 16.5818 21.5803 15.8043 21.4028V21.0836C15.8043 20.6628 15.4618 20.3203 15.041 20.3203C14.6201 20.3203 14.2776 20.6628 14.2776 21.0836V21.4295C13.3485 21.6995 12.7785 22.3836 12.7785 23.2453C12.7785 24.3103 13.8293 24.7478 14.756 25.1328C15.4201 25.4086 16.0468 25.6695 16.0468 26.0761C16.0468 26.3736 15.6735 26.6953 15.0693 26.6953C14.4601 26.6953 14.111 26.452 13.8026 26.2361C13.5901 26.0878 13.3885 25.947 13.1485 25.947C12.7993 25.947 12.5251 26.242 12.5251 26.617C12.5251 27.1695 13.281 27.7186 14.2768 27.912V28.2945C14.2768 28.7145 14.6193 29.0561 15.041 29.0561C15.4618 29.0561 15.8035 28.7145 15.8035 28.2945L15.801 27.8895C16.8535 27.632 17.4751 26.8953 17.4751 25.8911Z" fill="white"/>
</svg>
