<svg width="28" height="30" viewBox="0 0 28 30" fill="none" xmlns="http://www.w3.org/2000/svg">
<path d="M13.9997 28.3481C21.7317 28.3481 27.9997 22.0022 27.9997 14.174C27.9997 6.34594 21.7317 0 13.9997 0C6.26771 0 -0.000305176 6.34594 -0.000305176 14.174C-0.000305176 22.0022 6.26771 28.3481 13.9997 28.3481Z" fill="#FFCB4C"/>
<path d="M11.137 17.5248C11.0176 17.4281 10.9245 17.2964 10.88 17.138C10.7697 16.7544 10.9871 16.3726 11.3659 16.2867C15.0949 15.4354 17.6058 17.4231 17.712 17.5082C18.0283 17.7633 18.09 18.2127 17.8545 18.5129C17.619 18.8113 17.1726 18.8472 16.8572 18.5937C16.7666 18.5237 14.7794 16.9904 11.7662 17.6783C11.5405 17.7291 11.3099 17.6649 11.137 17.5248Z" fill="#65471B"/>
<path d="M9.97998 11.5154C10.9465 11.5154 11.73 10.5239 11.73 9.30091C11.73 8.07789 10.9465 7.08643 9.97998 7.08643C9.01348 7.08643 8.22998 8.07789 8.22998 9.30091C8.22998 10.5239 9.01348 11.5154 9.97998 11.5154Z" fill="#65471B"/>
<path d="M19.2496 12.4021C20.2161 12.4021 20.9996 11.4107 20.9996 10.1876C20.9996 8.9646 20.2161 7.97314 19.2496 7.97314C18.2831 7.97314 17.4996 8.9646 17.4996 10.1876C17.4996 11.4107 18.2831 12.4021 19.2496 12.4021Z" fill="#65471B"/>
<path d="M13.4034 29.2912C13.4034 29.2912 14.4452 28.9486 14.5802 28.164C14.7227 27.3536 14.0663 27.191 14.0663 27.191C14.0663 27.191 14.9236 27.0176 15.0315 26.0437C15.1328 25.1257 14.3225 24.9073 14.3225 24.9073C14.3225 24.9073 15.1213 24.5738 15.1592 23.6241C15.1905 22.8245 14.3398 22.4335 14.3398 22.4335C14.3398 22.4335 18.4887 21.4155 18.9153 21.3154C19.3402 21.2154 20.0023 20.8027 19.7956 19.903C19.5906 19.0026 18.8041 18.9709 18.3981 19.0668C17.9913 19.1626 12.8442 20.3724 11.0687 20.791L9.88363 21.0695C9.43893 21.1754 9.23716 20.9778 9.55093 20.6426C9.96928 20.1957 10.2369 19.7013 10.33 18.8808C10.428 18.0179 10.1389 16.9523 9.9734 16.5388C9.6654 15.7709 9.14575 15.1639 8.5454 14.9554C7.60905 14.6303 6.94363 15.2231 7.27552 16.257C7.77293 17.8028 7.44681 19.0709 6.58952 19.8363C4.57269 21.6348 3.63469 22.9171 4.25893 25.6502C4.94081 28.6309 7.86352 30.5494 10.8076 29.859L13.4034 29.2912Z" fill="#F19020"/>
<path d="M6.83161 5.27975C6.69656 5.20638 6.58208 5.09299 6.50961 4.94708C6.33173 4.59023 6.47667 4.17418 6.83326 4.01993C10.3464 2.4933 13.1736 3.98408 13.2922 4.04828C13.6488 4.24088 13.7929 4.6711 13.6142 5.01044C13.4363 5.34812 13.0048 5.46568 12.6482 5.27558C12.5469 5.22306 10.316 4.08163 7.47809 5.31477C7.26644 5.40565 7.02761 5.38564 6.83161 5.27975ZM16.8251 8.40638C16.6967 8.32467 16.5896 8.20378 16.527 8.05286C16.373 7.68434 16.546 7.27996 16.9124 7.14906C20.5203 5.86839 23.2413 7.54927 23.3549 7.62181C23.6967 7.83858 23.812 8.27798 23.6119 8.60398C23.4126 8.92915 22.9728 9.0167 22.631 8.80242C22.5322 8.74239 20.3853 7.45088 17.47 8.48642C17.2509 8.56229 17.0146 8.52478 16.8251 8.40638Z" fill="#65471B"/>
</svg>
