<svg width="30" height="30" viewBox="0 0 30 30" fill="none" xmlns="http://www.w3.org/2000/svg">
<path d="M30 15C30 23.2842 23.2842 30 15 30C6.71667 30 0 23.2842 0 15C0 6.71667 6.71667 0 15 0C23.2842 0 30 6.71667 30 15Z" fill="#FFCC4D"/>
<path d="M23.7141 14.8309C23.6641 14.7184 22.4649 12.0834 19.9999 12.0834C17.5358 12.0834 16.3358 14.7184 16.2858 14.8309C16.2091 15.0034 16.2591 15.2051 16.4066 15.3234C16.5524 15.4417 16.7616 15.4459 16.9149 15.3351C16.9249 15.3276 17.9666 14.5834 19.9999 14.5834C22.0216 14.5834 23.0616 15.3176 23.0849 15.3342C23.1583 15.3892 23.2466 15.4167 23.3333 15.4167C23.4249 15.4167 23.5174 15.3859 23.5933 15.3259C23.7408 15.2076 23.7916 15.0042 23.7141 14.8309ZM13.7141 14.8309C13.6641 14.7184 12.4649 12.0834 9.99992 12.0834C7.53575 12.0834 6.33575 14.7184 6.28575 14.8309C6.20909 15.0034 6.25909 15.2051 6.40575 15.3234C6.55242 15.4417 6.76159 15.4459 6.91409 15.3351C6.92492 15.3276 7.96575 14.5834 9.99992 14.5834C12.0216 14.5834 13.0616 15.3176 13.0849 15.3342C13.1583 15.3892 13.2466 15.4167 13.3333 15.4167C13.4249 15.4167 13.5174 15.3859 13.5933 15.3259C13.7416 15.2076 13.7908 15.0042 13.7141 14.8309ZM25.8333 13.3334C25.5033 13.3334 25.1899 13.1351 25.0591 12.8092C23.5774 9.10507 19.8733 8.32507 19.8358 8.31674C19.3849 8.22674 19.0916 7.78757 19.1824 7.3359C19.2724 6.88424 19.7116 6.5934 20.1633 6.68257C20.3516 6.72007 24.7933 7.6559 26.6066 12.1892C26.7774 12.6167 26.5691 13.1017 26.1416 13.2726C26.0416 13.3142 25.9366 13.3334 25.8333 13.3334ZM4.16659 13.3334C4.06325 13.3334 3.95909 13.3142 3.85742 13.2734C3.42992 13.1026 3.22242 12.6176 3.39325 12.1901C5.20659 7.65674 9.64825 6.7209 9.83659 6.6834C10.2891 6.59507 10.7266 6.8859 10.8174 7.33674C10.9074 7.78674 10.6158 8.22507 10.1666 8.31674C10.0124 8.3484 6.41159 9.1334 4.94075 12.8092C4.80992 13.1351 4.49659 13.3334 4.16659 13.3334ZM14.9999 18.3334C11.9808 18.3334 9.97742 17.9817 7.49992 17.5001C6.93409 17.3909 5.83325 17.5001 5.83325 19.1667C5.83325 22.5001 9.66242 26.6667 14.9999 26.6667C20.3366 26.6667 24.1666 22.5001 24.1666 19.1667C24.1666 17.5001 23.0658 17.3901 22.4999 17.5001C20.0224 17.9817 18.0191 18.3334 14.9999 18.3334Z" fill="#664500"/>
<path d="M7.5 19.1675C7.5 19.1675 10 20.0008 15 20.0008C20 20.0008 22.5 19.1675 22.5 19.1675C22.5 19.1675 20.8333 22.5008 15 22.5008C9.16667 22.5008 7.5 19.1675 7.5 19.1675Z" fill="white"/>
<path d="M9.03909 23.5246C8.47242 25.7554 6.20575 27.1038 3.97492 26.5371C1.74492 25.9713 0.395752 23.7046 0.961585 21.4738C1.52742 19.2429 6.24242 14.2171 7.05075 14.4221C7.85909 14.6279 9.60492 21.2946 9.03909 23.5246ZM20.9441 23.5246C21.5108 25.7554 23.7774 27.1038 26.0083 26.5371C28.2391 25.9713 29.5883 23.7046 29.0216 21.4738C28.4549 19.2429 23.7399 14.2171 22.9316 14.4221C22.1249 14.6279 20.3783 21.2946 20.9441 23.5246Z" fill="#5DADEC"/>
</svg>
