<svg width="30" height="30" viewBox="0 0 30 30" fill="none" xmlns="http://www.w3.org/2000/svg">
<path d="M30 15C30 23.2842 23.2842 30 15 30C6.71583 30 0 23.2842 0 15C0 6.71583 6.71583 0 15 0C23.2842 0 30 6.71583 30 15Z" fill="#FFCC4D"/>
<path d="M14.9999 17.4991C11.9808 17.4991 9.97742 17.1474 7.49992 16.6657C6.93409 16.5566 5.83325 16.6657 5.83325 18.3324C5.83325 21.6657 9.66242 25.8324 14.9999 25.8324C20.3366 25.8324 24.1666 21.6657 24.1666 18.3324C24.1666 16.6657 23.0658 16.5557 22.4999 16.6657C20.0224 17.1474 18.0191 17.4991 14.9999 17.4991Z" fill="#664500"/>
<path d="M7.5 18.3325C7.5 18.3325 10 19.1659 15 19.1659C20 19.1659 22.5 18.3325 22.5 18.3325C22.5 18.3325 20.8333 21.6659 15 21.6659C9.16667 21.6659 7.5 18.3325 7.5 18.3325Z" fill="white"/>
<path d="M13.0684 3.67691L9.28339 4.34442L7.33339 0.800248C7.11839 0.409414 6.67672 0.200247 6.24006 0.276914C5.80089 0.354414 5.45922 0.702748 5.39089 1.14275L4.77006 5.14025L0.985056 5.80775C0.539222 5.88608 0.195056 6.24525 0.134222 6.69442C0.0733892 7.14358 0.310056 7.58025 0.720056 7.77525L4.11172 9.38525L3.48839 13.3952C3.41922 13.8419 3.64589 14.2819 4.04922 14.4861C4.19839 14.5611 4.35839 14.5969 4.51756 14.5969C4.79006 14.5969 5.05922 14.4902 5.26006 14.2869L8.18672 11.3194L11.9517 13.1069C12.3601 13.3002 12.8467 13.2094 13.1567 12.8802C13.4667 12.5511 13.5284 12.0602 13.3109 11.6644L11.3542 8.10775L13.9917 5.43441C14.3101 5.11191 14.3826 4.62025 14.1726 4.21858C13.9609 3.81691 13.5117 3.59941 13.0684 3.67691ZM16.9317 3.67691L20.7167 4.34442L22.6667 0.800248C22.8817 0.409414 23.3234 0.200247 23.7601 0.276914C24.1984 0.354414 24.5401 0.702748 24.6084 1.14275L25.2292 5.14025L29.0142 5.80775C29.4609 5.88608 29.8051 6.24441 29.8651 6.69358C29.9251 7.14275 29.6892 7.57942 29.2792 7.77442L25.8876 9.38442L26.5109 13.3944C26.5801 13.8411 26.3534 14.2811 25.9501 14.4852C25.8009 14.5602 25.6409 14.5961 25.4817 14.5961C25.2092 14.5961 24.9401 14.4894 24.7392 14.2861L21.8126 11.3186L18.0476 13.1061C17.6392 13.2994 17.1526 13.2086 16.8426 12.8794C16.5326 12.5502 16.4709 12.0594 16.6884 11.6636L18.6451 8.10775L16.0076 5.43441C15.6892 5.11191 15.6167 4.62025 15.8267 4.21858C16.0392 3.81691 16.4884 3.59941 16.9317 3.67691Z" fill="#E95F28"/>
</svg>
