<svg width="30" height="30" viewBox="0 0 30 30" fill="none" xmlns="http://www.w3.org/2000/svg">
<path d="M29.6637 11.8574C31.3992 19.9558 26.241 27.9285 18.1426 29.664C10.0441 31.3995 2.07149 26.2413 0.335996 18.1429C-1.3995 10.0444 3.7595 2.07178 11.8571 0.33628C19.9556 -1.40005 27.9282 3.75895 29.6637 11.8574Z" fill="#FFCB4C"/>
<path d="M24.4038 7.50795C25.0529 10.5374 23.1233 13.5201 20.0938 14.1692C17.0644 14.8182 14.0817 12.8886 13.4318 9.85916C12.7828 6.82974 14.7124 3.84699 17.7418 3.19794C20.7712 2.5489 23.7548 4.4777 24.4038 7.50795Z" fill="#F4F7F9"/>
<path d="M18.5902 9.43748C19.5277 9.43748 20.2877 8.67748 20.2877 7.73998C20.2877 6.80248 19.5277 6.04248 18.5902 6.04248C17.6527 6.04248 16.8927 6.80248 16.8927 7.73998C16.8927 8.67748 17.6527 9.43748 18.5902 9.43748Z" fill="#292F33"/>
<path d="M11.7431 11.9001C12.123 13.6714 10.9941 15.4152 9.22275 15.7952C7.45142 16.1751 5.70759 15.0461 5.32767 13.2748C4.94774 11.5035 6.07669 9.75966 7.84802 9.37973C9.61934 8.9998 11.3632 10.1288 11.7431 11.9001Z" fill="#F4F7F9"/>
<path d="M8.87528 14.7935C9.74922 14.6062 10.3059 13.7459 10.1186 12.872C9.93132 11.9981 9.07103 11.4414 8.19709 11.6287C7.32315 11.816 6.7665 12.6762 6.95378 13.5502C7.14106 14.4241 8.00134 14.9808 8.87528 14.7935Z" fill="#292F33"/>
<path d="M15.5231 17.444C12.5712 18.0764 10.5399 18.1522 8.01622 18.2005C7.4405 18.213 6.38737 18.5496 6.73647 20.1793C7.43467 23.4378 12.0513 26.7089 17.2694 25.5907C22.4868 24.4726 25.3579 19.5969 24.6597 16.3384C24.3106 14.7087 23.2108 14.832 22.6809 15.0586C20.3597 16.0476 18.475 16.8116 15.5231 17.444Z" fill="#65471B"/>
<path d="M9.17017 20V24.999C9.17017 27.4986 10.8365 29.9981 14.1692 29.9981C17.5019 29.9981 19.1682 27.4986 19.1682 24.999V20H9.17017Z" fill="#E8596E"/>
<path d="M14.1691 26.5646C14.4199 26.5646 14.6232 26.3613 14.6232 26.1105V20.8657H13.7142V26.1105C13.715 26.3613 13.9183 26.5646 14.1691 26.5646Z" fill="#DD2F45"/>
<path d="M8.36517 19.8307C8.36517 19.8307 10.9838 20.1215 15.8721 19.0742C20.7603 18.0269 23.0298 16.688 23.0298 16.688C23.0298 16.688 22.0992 20.2956 16.3961 21.5179C10.6931 22.7402 8.36517 19.8307 8.36517 19.8307Z" fill="white"/>
</svg>
