<svg width="30" height="30" viewBox="0 0 30 30" fill="none" xmlns="http://www.w3.org/2000/svg">
<path d="M29.9997 15C29.9997 23.2842 23.2839 30 14.9997 30C6.71636 30 -0.000305176 23.2842 -0.000305176 15C-0.000305176 6.71667 6.71636 0 14.9997 0C23.2839 0 29.9997 6.71667 29.9997 15Z" fill="#DA2F47"/>
<path d="M21.2372 24.8982C21.1997 24.749 20.2639 21.249 14.9997 21.249C9.73472 21.249 8.79972 24.749 8.76222 24.8982C8.71639 25.079 8.79805 25.2665 8.95972 25.3599C9.12222 25.4507 9.32555 25.4257 9.45972 25.2957C9.47555 25.2799 11.0881 23.749 14.9997 23.749C18.9114 23.749 20.5247 25.2799 20.5397 25.2949C20.6197 25.374 20.7264 25.4157 20.8331 25.4157C20.9031 25.4157 20.9739 25.3982 21.0381 25.3624C21.2014 25.269 21.2831 25.0799 21.2372 24.8982ZM13.0889 12.7432C10.3764 10.0307 6.01722 9.99902 5.83305 9.99902C5.37305 9.99902 5.00055 10.3715 5.00055 10.8307C4.99972 11.2907 5.37222 11.664 5.83222 11.6657C5.85638 11.6657 7.43638 11.6849 9.15139 12.2799C8.65722 12.8132 8.33305 13.6415 8.33305 14.5824C8.33305 16.194 9.26555 17.499 10.4164 17.499C11.5672 17.499 12.4997 16.194 12.4997 14.5824C12.4997 14.4374 12.4839 14.299 12.4689 14.1599C12.4797 14.1599 12.4897 14.1657 12.4997 14.1657C12.7131 14.1657 12.9264 14.084 13.0889 13.9215C13.4147 13.5957 13.4147 13.069 13.0889 12.7432ZM24.1664 9.99902C23.9822 9.99902 19.6239 10.0307 16.9106 12.7432C16.5847 13.069 16.5847 13.5957 16.9106 13.9215C17.0731 14.084 17.2864 14.1657 17.4997 14.1657C17.5106 14.1657 17.5197 14.1599 17.5297 14.1599C17.5164 14.299 17.4997 14.4374 17.4997 14.5824C17.4997 16.194 18.4322 17.499 19.5831 17.499C20.7339 17.499 21.6664 16.194 21.6664 14.5824C21.6664 13.6415 21.3422 12.8132 20.8481 12.2799C22.5631 11.6849 24.1431 11.6657 24.1681 11.6657C24.6272 11.664 24.9997 11.2907 24.9989 10.8307C24.9981 10.3715 24.6264 9.99902 24.1664 9.99902Z" fill="#292F33"/>
<path d="M24.7823 27.4986H5.2173C4.18063 27.4986 3.33313 26.6511 3.33313 25.6144V20.8319C3.33313 19.7953 4.18063 18.9478 5.2173 18.9478H24.7823C25.819 18.9478 26.6665 19.7953 26.6665 20.8319V25.6144C26.6665 26.6511 25.819 27.4986 24.7823 27.4986Z" fill="#292F33"/>
<path d="M6.53385 22.6899H5.85218C5.59051 22.6899 5.47135 22.4991 5.47135 22.3091C5.47135 22.1191 5.59051 21.9291 5.85218 21.9291H6.64385L6.81801 20.6541C6.85718 20.3691 6.97635 20.2741 7.21385 20.2741C7.40385 20.2741 7.57885 20.3999 7.57885 20.5907C7.57885 20.7099 7.57885 20.6541 7.56301 20.7816L7.40468 21.9299H8.16551L8.33968 20.6549C8.37885 20.3699 8.49801 20.2749 8.73551 20.2749C8.92551 20.2749 9.10051 20.4007 9.10051 20.5916C9.10051 20.7107 9.10051 20.6549 9.08468 20.7824L8.92551 21.9307H9.60718C9.86885 21.9307 9.98718 22.1216 9.98718 22.3107C9.98718 22.5007 9.86801 22.6916 9.60718 22.6916H8.81468L8.68801 23.5941H9.36968C9.63135 23.5941 9.74968 23.7849 9.74968 23.9749C9.74968 24.1649 9.63051 24.3549 9.36968 24.3549H8.57718L8.40301 25.6299C8.36301 25.9157 8.24385 26.0099 8.00635 26.0099C7.81635 26.0099 7.64135 25.8841 7.64135 25.6932C7.64135 25.5741 7.64135 25.6299 7.65718 25.5024L7.81635 24.3541H7.05635L6.88218 25.6291C6.84218 25.9149 6.72385 26.0091 6.48551 26.0091C6.29551 26.0091 6.12051 25.8832 6.12051 25.6924C6.12051 25.5732 6.12051 25.6291 6.13635 25.5016L6.29468 24.3532H5.61468C5.35385 24.3532 5.23468 24.1624 5.23468 23.9732C5.23468 23.7824 5.35385 23.5924 5.61468 23.5924H6.40718L6.53385 22.6899ZM7.17551 23.5924H7.92801L8.05468 22.6899H7.30218L7.17551 23.5924ZM11.0222 21.5091C11.0222 20.8199 11.5372 20.2257 12.2422 20.2257C12.9472 20.2257 13.4622 20.8199 13.4622 21.5091C13.4622 22.1982 12.9472 22.7849 12.2422 22.7849C11.5363 22.7857 11.0222 22.1991 11.0222 21.5091ZM12.6538 21.5091C12.6538 21.2557 12.503 21.0341 12.2422 21.0341C11.9805 21.0341 11.8297 21.2566 11.8297 21.5091C11.8297 21.7632 11.9805 21.9774 12.2422 21.9774C12.503 21.9774 12.6538 21.7632 12.6538 21.5091ZM14.5788 20.4324C14.6822 20.2349 14.7613 20.1791 14.9438 20.1791C15.1897 20.1791 15.4113 20.3766 15.4113 20.6224C15.4113 20.6857 15.4113 20.7416 15.348 20.8599L12.6863 25.8424C12.5672 26.0082 12.5197 26.1032 12.3297 26.1032C12.1238 26.1032 11.878 25.9057 11.878 25.6682C11.878 25.5491 11.9255 25.4391 11.9572 25.3749L14.5788 20.4324ZM13.8105 24.7816C13.8105 24.0924 14.3255 23.4982 15.0305 23.4982C15.7355 23.4982 16.2505 24.0924 16.2505 24.7816C16.2505 25.4699 15.7355 26.0566 15.0305 26.0566C14.3247 26.0574 13.8105 25.4699 13.8105 24.7816ZM15.4422 24.7816C15.4422 24.5274 15.2913 24.3066 15.0297 24.3066C14.768 24.3066 14.6172 24.5282 14.6172 24.7816C14.6172 25.0349 14.768 25.2491 15.0297 25.2491C15.2913 25.2491 15.4422 25.0349 15.4422 24.7816ZM17.5138 25.4391C17.5138 25.0982 17.7913 24.8207 18.1313 24.8207C18.4722 24.8207 18.7497 25.0982 18.7497 25.4391C18.7497 25.7791 18.4722 26.0566 18.1313 26.0566C17.7913 26.0574 17.5138 25.7799 17.5138 25.4391ZM17.5613 20.7649C17.5613 20.4324 17.8063 20.2266 18.1313 20.2266C18.4488 20.2266 18.7022 20.4407 18.7022 20.7649V23.8149C18.7022 24.1399 18.4488 24.3532 18.1313 24.3532C17.8063 24.3532 17.5613 24.1474 17.5613 23.8149V20.7649ZM24.293 26.1041C24.1372 26.1041 24.0397 26.0599 23.9338 25.9407L23.3305 25.2824L23.2705 25.3374C22.6855 25.8749 22.1805 26.1032 21.5838 26.1032C20.6597 26.1032 19.7263 25.5766 19.7263 24.3999C19.7263 23.4774 20.4488 22.9257 20.8797 22.6791L20.9772 22.6232L20.898 22.5416C20.5438 22.1707 20.3988 21.8641 20.3988 21.4841C20.3988 20.5866 21.218 20.1782 21.9788 20.1782C22.6155 20.1782 23.5122 20.5557 23.5122 21.3932C23.5122 22.1857 22.7763 22.6441 22.5513 22.7657L22.4555 22.8174L23.423 23.9349L23.793 23.4882C23.9988 23.2407 24.1188 23.1366 24.3313 23.1366C24.5022 23.1366 24.6847 23.2899 24.6847 23.5724C24.6847 23.7841 24.4747 24.0599 24.2688 24.3016L24.0213 24.5807L24.6097 25.2791C24.7188 25.4091 24.7638 25.4782 24.7638 25.6357C24.7647 25.8816 24.5397 26.1041 24.293 26.1041ZM21.4205 23.2091C21.0638 23.4482 20.7005 23.7632 20.7005 24.2849C20.7005 24.8316 21.0563 25.1841 21.608 25.1841C22.068 25.1841 22.3655 24.9824 22.6705 24.6791L22.7297 24.6216L21.4797 23.1691L21.4205 23.2091ZM21.9797 20.9499C21.7463 20.9499 21.4213 21.1407 21.4213 21.4516C21.4213 21.7416 21.5638 21.9182 21.8663 22.2257L21.9088 22.2691L21.9613 22.2416C22.3755 22.0249 22.5855 21.7807 22.5855 21.5174C22.5863 21.1274 22.2722 20.9499 21.9797 20.9499Z" fill="white"/>
</svg>
