<svg width="17" height="14" viewBox="0 0 17 14" fill="none" xmlns="http://www.w3.org/2000/svg">
<path d="M16.407 6C16.7312 6 17 5.728 17 5.4V4.6C17 1.072 15.9405 0 12.4535 0H7.51163V1.8C7.51163 2.128 7.24279 2.4 6.9186 2.4C6.59442 2.4 6.32558 2.128 6.32558 1.8V0H4.54651C1.05954 0 0 1.072 0 4.6V5C0 5.328 0.268837 5.6 0.593023 5.6C1.35209 5.6 1.97674 6.232 1.97674 7C1.97674 7.768 1.35209 8.4 0.593023 8.4C0.268837 8.4 0 8.672 0 9V9.4C0 12.928 1.05954 14 4.54651 14H6.32558V12.2C6.32558 11.872 6.59442 11.6 6.9186 11.6C7.24279 11.6 7.51163 11.872 7.51163 12.2V14H12.4535C15.9405 14 17 12.928 17 9.4C17 9.072 16.7312 8.8 16.407 8.8C15.6479 8.8 15.0233 8.168 15.0233 7.4C15.0233 6.632 15.6479 6 16.407 6ZM7.51163 8.736C7.51163 9.064 7.24279 9.336 6.9186 9.336C6.59442 9.336 6.32558 9.064 6.32558 8.736V5.264C6.32558 4.936 6.59442 4.664 6.9186 4.664C7.24279 4.664 7.51163 4.936 7.51163 5.264V8.736Z" fill="#C4C8E3"/>
</svg>
