<svg width="18" height="18" viewBox="0 0 18 18" fill="none" xmlns="http://www.w3.org/2000/svg">
<path fill-rule="evenodd" clip-rule="evenodd" d="M9 18C13.9706 18 18 13.9706 18 9C18 4.02944 13.9706 0 9 0C4.02944 0 0 4.02944 0 9C0 13.9706 4.02944 18 9 18ZM13.1705 7.5455C13.6098 7.10616 13.6098 6.39384 13.1705 5.9545C12.7312 5.51517 12.0188 5.51517 11.5795 5.9545L7.875 9.65901L6.4205 8.2045C5.98116 7.76516 5.26884 7.76516 4.8295 8.2045C4.39017 8.64384 4.39017 9.35615 4.8295 9.7955L7.0795 12.0455C7.51884 12.4848 8.23116 12.4848 8.6705 12.0455L13.1705 7.5455Z" fill="#56C72C"/>
</svg>
