<svg width="18" height="18" viewBox="0 0 18 18" fill="none" xmlns="http://www.w3.org/2000/svg">
<path opacity="0.3" fill-rule="evenodd" clip-rule="evenodd" d="M9 18C13.9706 18 18 13.9706 18 9C18 4.02944 13.9706 0 9 0C4.02944 0 0 4.02944 0 9C0 13.9706 4.02944 18 9 18ZM7.5455 5.9545C7.10616 5.51517 6.39385 5.51517 5.9545 5.9545C5.51517 6.39384 5.51517 7.10616 5.9545 7.5455L7.40901 9L5.9545 10.4545C5.51517 10.8938 5.51517 11.6062 5.9545 12.0455C6.39384 12.4848 7.10616 12.4848 7.5455 12.0455L9 10.591L10.4545 12.0455C10.8938 12.4848 11.6062 12.4848 12.0455 12.0455C12.4848 11.6062 12.4848 10.8938 12.0455 10.4545L10.591 9L12.0455 7.5455C12.4848 7.10616 12.4848 6.39384 12.0455 5.9545C11.6062 5.51517 10.8938 5.51517 10.4545 5.9545L9 7.40901L7.5455 5.9545Z" fill="white"/>
</svg>
