<svg width="40" height="40" viewBox="0 0 40 40" fill="none" xmlns="http://www.w3.org/2000/svg">
<path d="M40 20.0085C39.9958 31.0547 31.0367 40.0053 19.9915 40C8.94637 39.9958 -0.00422996 31.0378 1.49972e-06 19.9915C0.00423296 8.94954 8.95589 0.00105796 19.9979 9.37173e-08C31.0441 -0.00105777 39.9989 8.95377 40 20V20.0085Z" fill="#F7931A"/>
<path d="M23.1974 15.6197C23.1974 18.1492 19.3151 17.854 18.0797 17.854V13.3834C19.3151 13.3813 23.1923 12.9792 23.1923 15.6176L23.1974 15.6197ZM24.2148 22.5737C24.2148 25.3535 19.5628 25.0373 18.0787 25.0383V20.1091C19.5628 20.1081 24.2158 19.6715 24.2158 22.5716L24.2148 22.5737ZM27.2772 14.6167C27.0285 11.9647 24.79 11.0758 21.9651 10.8224V7.14441H19.7767V10.7261C19.2015 10.7261 18.613 10.7376 18.0285 10.7502V7.14546H15.8412V10.8224C15.3673 10.8319 14.9016 10.8413 14.4482 10.8413V10.8298H11.4287V13.2242C11.4287 13.2242 13.0449 13.1928 13.0183 13.2242C13.6293 13.1436 14.1913 13.5812 14.2772 14.2052V18.3931C14.354 18.3931 14.4318 18.3984 14.5086 18.4089H14.2772V24.2793C14.2516 24.7159 13.8862 25.0477 13.4604 25.0216H13.4584C13.486 25.0467 11.8678 25.0216 11.8678 25.0216L11.4328 27.6956H14.2813C14.8115 27.6956 15.3325 27.705 15.8443 27.7092V31.4291H18.0306V27.7479C18.6304 27.7605 19.2117 27.7657 19.7788 27.7657V31.4301H21.964V27.7165C25.6488 27.5008 28.2199 26.5523 28.5393 23.0177C28.7972 20.1709 27.4881 18.9009 25.4001 18.3879C26.7911 17.7137 27.5618 16.1641 27.2772 14.6167Z" fill="white"/>
</svg>
