<svg width="40" height="40" viewBox="0 0 40 40" fill="none" xmlns="http://www.w3.org/2000/svg">
<path d="M32.8241 26.9114C32.9443 27.6919 32.6905 28.0149 32.434 28.0149C32.1561 28.0149 31.8035 27.6996 31.392 27.0742C30.9831 26.4591 30.8362 25.7536 31.0366 25.3943C31.1702 25.1592 31.4507 25.0558 31.8035 25.185C32.4848 25.4357 32.7519 26.4462 32.8241 26.9114ZM29.0487 28.6119C29.8664 29.2813 30.1148 30.0773 29.6819 30.6381C29.4415 30.9456 29.0514 31.1162 28.5838 31.1162C28.1242 31.1162 27.6567 30.9508 27.3333 30.6769C26.5906 30.0489 26.3715 29.028 26.8578 28.4491C27.0475 28.2217 27.3547 28.0976 27.7262 28.0976C28.175 28.0976 28.6453 28.2811 29.0487 28.6119ZM27.6807 35.0704C31.2049 35.0704 35.0284 36.2385 39.2607 39.867C39.6855 40.2314 40.2492 39.7791 39.8805 39.3269C35.7204 34.2459 31.8729 33.2794 28.036 32.4627C23.3442 31.4625 20.9288 28.9091 19.2456 26.1025C18.9116 25.5442 18.762 25.6424 18.7299 26.3609C18.6925 27.237 18.7566 28.4 18.9597 29.5397C18.77 29.5475 18.5802 29.5449 18.3879 29.5449C11.6735 29.5449 6.23084 24.2805 6.23084 17.7859C6.23084 11.2913 11.6735 6.02683 18.3879 6.02683C25.1024 6.02683 30.545 11.2913 30.545 17.7859C30.545 18.2485 30.5209 18.7059 30.4674 19.153C29.5804 18.9979 27.833 18.9799 26.6066 19.0832C26.1444 19.122 26.2112 19.3288 26.5586 19.3908C30.577 20.0937 33.3371 22.5024 33.9703 26.8726C33.9837 26.9734 34.1199 27.0044 34.1734 26.9166C35.8273 24.2469 36.7758 21.1249 36.7758 17.7859C36.7812 7.96513 28.5465 0 18.3905 0C8.23475 0 0 7.96513 0 17.7884C0 27.6118 8.23475 35.5769 18.3905 35.5769C21.0838 35.5769 23.7584 35.0704 27.6807 35.0704Z" fill="#FF8C00"/>
</svg>
