<svg width="40" height="40" viewBox="0 0 40 40" fill="none" xmlns="http://www.w3.org/2000/svg">
<path d="M35.8263 7.77026C36.7764 8.99861 37.5807 10.3331 38.2229 11.7469L20.0047 25.1769L12.3909 20.404V14.6619L20.0047 19.4349L35.8263 7.77026Z" fill="#21A038"/>
<path d="M4.62049 19.9996C4.62049 19.7419 4.62678 19.486 4.63934 19.2315L0.0251298 19.0054C0.00942453 19.3352 5.57606e-06 19.6682 5.57606e-06 20.0042C-0.00195764 22.63 0.514506 25.2303 1.51978 27.6559C2.52505 30.0816 3.99934 32.2849 5.85807 34.1394L9.13105 30.8679C7.70026 29.4429 6.56521 27.749 5.79114 25.8839C5.01706 24.0187 4.61923 22.0189 4.62049 19.9996Z" fill="url(#paint0_linear_85_2946)"/>
<path d="M20.0006 4.62042C20.2581 4.62042 20.514 4.62985 20.7684 4.64241L20.9993 0.0265021C20.6686 0.0107964 20.3356 0.00294452 20.0006 0.00294452C17.3736 -0.000259062 14.772 0.515474 12.345 1.52053C9.91802 2.52559 7.71346 4.00017 5.85791 5.85962L9.13089 9.13268C10.556 7.70139 12.2499 6.5659 14.1153 5.79152C15.9807 5.01715 17.9807 4.61915 20.0006 4.62042Z" fill="url(#paint1_linear_85_2946)"/>
<path d="M20.0009 35.3798C19.7433 35.3798 19.4873 35.3798 19.2314 35.3594L19.0005 39.9737C19.3324 39.9904 19.6659 39.9989 20.0009 39.9989C22.6267 40.0016 25.227 39.4855 27.6528 38.4802C30.0785 37.4748 32.2816 36 34.1357 34.1406L30.869 30.8691C29.4437 32.2997 27.7499 33.4345 25.8849 34.2086C24.0198 34.9827 22.0202 35.3808 20.0009 35.3798Z" fill="url(#paint2_linear_85_2946)"/>
<path d="M28.6703 7.30319L32.5589 4.43689C29.0047 1.55876 24.5681 -0.00798939 19.9946 3.06379e-05V4.61908C23.0915 4.61524 26.1166 5.55117 28.6703 7.30319Z" fill="url(#paint3_linear_85_2946)"/>
<path d="M39.9999 20.0001C40.0024 18.7985 39.8973 17.5989 39.6858 16.416L35.381 19.5886C35.381 19.7253 35.381 19.8619 35.381 20.0001C35.3821 22.1491 34.9316 24.2743 34.0589 26.238C33.1861 28.2017 31.9103 29.9601 30.3145 31.3992L33.4194 34.831C35.4942 32.9579 37.1521 30.6698 38.2857 28.1149C39.4194 25.5599 40.0034 22.7952 39.9999 20.0001Z" fill="#21A038"/>
<path d="M20.0007 35.3804C17.8516 35.3811 15.7263 34.9305 13.7623 34.0577C11.7985 33.1849 10.0398 31.9093 8.60019 30.3137L5.17017 33.4172C7.04295 35.4923 9.33097 37.1505 11.8859 38.2845C14.4407 39.4184 17.2054 40.0027 20.0007 39.9994V35.3804Z" fill="url(#paint4_linear_85_2946)"/>
<path d="M9.68703 8.60016L6.58366 5.16846C4.50832 7.04117 2.84978 9.3292 1.71558 11.8842C0.581401 14.4391 -0.00309217 17.2039 1.23022e-05 19.9993H4.62051C4.61955 17.8505 5.07008 15.7252 5.94287 13.7615C6.81566 11.7978 8.09126 10.0394 9.68703 8.60016Z" fill="url(#paint5_linear_85_2946)"/>
<defs>
<linearGradient id="paint0_linear_85_2946" x1="6.79254" y1="33.563" x2="1.7446" y2="18.9709" gradientUnits="userSpaceOnUse">
<stop offset="0.14" stop-color="#F1E813"/>
<stop offset="0.3" stop-color="#E6E418"/>
<stop offset="0.58" stop-color="#C9DA26"/>
<stop offset="0.89" stop-color="#A2CC39"/>
</linearGradient>
<linearGradient id="paint1_linear_85_2946" x1="7.17715" y1="6.67631" x2="20.1796" y2="1.72139" gradientUnits="userSpaceOnUse">
<stop offset="0.06" stop-color="#0FA7DF"/>
<stop offset="0.54" stop-color="#0098F8"/>
<stop offset="0.92" stop-color="#0290EA"/>
</linearGradient>
<linearGradient id="paint2_linear_85_2946" x1="18.6959" y1="37.2111" x2="33.3991" y2="33.8895" gradientUnits="userSpaceOnUse">
<stop offset="0.12" stop-color="#A2CC39"/>
<stop offset="0.28" stop-color="#86C239"/>
<stop offset="0.87" stop-color="#219F38"/>
</linearGradient>
<linearGradient id="paint3_linear_85_2946" x1="19.0335" y1="1.54704" x2="31.6041" y2="5.42616" gradientUnits="userSpaceOnUse">
<stop offset="0.06" stop-color="#0290EA"/>
<stop offset="0.79" stop-color="#0C89CA"/>
</linearGradient>
<linearGradient id="paint4_linear_85_2946" x1="6.32921" y1="32.8549" x2="20.0118" y2="37.9684" gradientUnits="userSpaceOnUse">
<stop offset="0.13" stop-color="#F1E813"/>
<stop offset="0.3" stop-color="#EAE616"/>
<stop offset="0.53" stop-color="#D8DF1F"/>
<stop offset="0.8" stop-color="#BAD52D"/>
<stop offset="0.98" stop-color="#A2CC39"/>
</linearGradient>
<linearGradient id="paint5_linear_85_2946" x1="1.72131" y1="20.5584" x2="7.21372" y2="6.27111" gradientUnits="userSpaceOnUse">
<stop offset="0.07" stop-color="#A2CC39"/>
<stop offset="0.26" stop-color="#81C45E"/>
<stop offset="0.92" stop-color="#0FA7DF"/>
</linearGradient>
</defs>
</svg>
