<svg width="68" height="20" viewBox="0 0 68 20" fill="none" xmlns="http://www.w3.org/2000/svg">
<path d="M63.4122 0H59.1236C57.8271 0 56.8298 0.392157 56.2314 1.66667L48.0532 20H53.8378C53.8378 20 54.8351 17.549 55.0346 16.9608C55.633 16.9608 61.3178 16.9608 62.1156 16.9608C62.3151 17.6471 62.8138 19.902 62.8138 19.902H67.9999L63.4122 0ZM56.6303 12.8431C57.129 11.6667 58.8244 7.2549 58.8244 7.2549C58.8244 7.35294 59.3231 6.07843 59.5226 5.39216L59.9215 7.15686C59.9215 7.15686 61.0186 11.9608 61.218 12.9412H56.6303V12.8431Z" fill="#3362AB"/>
<path d="M48.2717 13.3333C48.2717 17.3333 44.5358 20 38.7353 20C36.2775 20 33.918 19.5238 32.6399 18.9524L33.4264 14.5714L34.1146 14.8571C35.8842 15.619 37.064 15.9048 39.2269 15.9048C40.7999 15.9048 42.4712 15.3333 42.4712 14C42.4712 13.1429 41.783 12.5714 39.6201 11.619C37.5556 10.6667 34.8028 9.14286 34.8028 6.38095C34.8028 2.57143 38.637 0 44.0442 0C46.1088 0 47.8784 0.380952 48.9599 0.857143L48.1734 5.04762L47.7801 4.66667C46.797 4.28571 45.5189 3.90476 43.651 3.90476C41.5864 4 40.6033 4.85714 40.6033 5.61905C40.6033 6.47619 41.783 7.14286 43.651 8C46.797 9.42857 48.2717 11.0476 48.2717 13.3333Z" fill="#3362AB"/>
<path d="M0 0.390085L0.097641 0H8.49477C9.66646 0 10.5452 0.390085 10.8382 1.65786L12.6933 10.4348C10.8382 5.75376 6.54195 1.95043 0 0.390085Z" fill="#F9B50B"/>
<path d="M25.3866 0.0980392L16.5327 20H10.5284L5.43994 3.33333C9.10361 5.58823 12.1567 9.11765 13.2761 11.5686L13.8867 13.6274L19.3823 0H25.3866V0.0980392Z" fill="#3362AB"/>
<path d="M27.0992 0H32.6399L29.114 20H23.5732L27.0992 0Z" fill="#3362AB"/>
</svg>
