<svg width="159" height="53" viewBox="0 0 159 53" fill="none" xmlns="http://www.w3.org/2000/svg">
<g opacity="0.3" filter="url(#filter0_f_62_137)">
<ellipse cx="106.854" cy="26.4427" rx="8" ry="15.5616" transform="rotate(47.2027 106.854 26.4427)" fill="#FC695C"/>
</g>
<path fill-rule="evenodd" clip-rule="evenodd" d="M109.216 38.6892C107.077 40.8299 104.251 42 101.246 42C99.768 42.004 98.3036 41.7148 96.9379 41.1491C95.5721 40.5834 94.3322 39.7524 93.2897 38.7042C88.9034 34.3179 88.9034 27.1805 93.2897 22.7942L105.525 12.358C105.762 12.1559 106.056 12.0328 106.367 12.0057C106.677 11.9786 106.988 12.0488 107.257 12.2067C107.526 12.3645 107.739 12.6022 107.866 12.8866C107.993 13.1709 108.029 13.488 107.968 13.7936L107.104 18.1124L117.77 12.187C118.055 12.0303 118.383 11.9705 118.705 12.0164C119.027 12.0623 119.325 12.2115 119.555 12.4415C119.785 12.6716 119.934 12.9701 119.98 13.2921C120.025 13.6141 119.965 13.9422 119.808 14.2271L113.546 25.4989H118.497C118.792 25.4989 119.081 25.5858 119.326 25.7488C119.572 25.9117 119.764 26.1435 119.879 26.4151C119.994 26.6867 120.026 26.9862 119.972 27.276C119.917 27.5658 119.778 27.8331 119.573 28.0445L109.216 38.6892ZM104.177 17.4493L95.3239 24.9963C92.1961 28.1315 92.1961 33.3669 95.4109 36.5831C96.9695 38.1417 99.0426 38.9998 101.246 38.9998C103.45 38.9998 105.522 38.1417 107.08 36.5831L114.945 28.4991H108.448L109.684 26.2714L109.686 26.2699L114.636 17.3593L102.89 23.8847L103.526 20.706V20.7045L103.805 19.3094L104.177 17.4493ZM104.535 34.8543C103.601 35.5999 102.441 36.0039 101.246 35.9995C100.052 36.0039 98.8913 35.5999 97.9578 34.8543C97.0244 34.1088 96.3737 33.0666 96.1139 31.9006C95.854 30.7346 96.0005 29.5147 96.5291 28.4434C97.0577 27.3721 97.9366 26.5136 99.0201 26.0103C99.0174 26.0383 99.0137 26.0662 99.0099 26.094C99.003 26.1452 98.9961 26.1964 98.9961 26.2488C98.9961 26.8456 99.2331 27.4179 99.6551 27.8399C100.077 28.2619 100.649 28.499 101.246 28.499C101.843 28.499 102.415 28.2619 102.837 27.8399C103.259 27.4179 103.496 26.8456 103.496 26.2488C103.496 26.1964 103.489 26.1452 103.483 26.094C103.479 26.0662 103.475 26.0383 103.472 26.0103C104.556 26.5136 105.435 27.3721 105.963 28.4434C106.492 29.5147 106.638 30.7346 106.379 31.9006C106.119 33.0666 105.468 34.1088 104.535 34.8543Z" fill="url(#paint0_linear_62_137)"/>
<path d="M29.7598 43H24.082V27.1621H23.959L17.6836 42.7363H13.9922L7.73438 27.1621H7.59375V43H1.91602V17.6348H9.36914L15.7676 33.9297H15.9082L22.3066 17.6348H29.7598V43ZM42.2227 27.8301C41.2734 27.8301 40.4707 28.1523 39.8145 28.7969C39.1699 29.4297 38.8066 30.2441 38.7246 31.2402H45.6855C45.627 30.2207 45.2812 29.4004 44.6484 28.7793C44.0156 28.1465 43.207 27.8301 42.2227 27.8301ZM45.8262 36.9531H51.4512C51.1465 38.9336 50.1738 40.5156 48.5332 41.6992C46.8926 42.8711 44.8242 43.457 42.3281 43.457C39.2812 43.457 36.8965 42.5781 35.1738 40.8203C33.4512 39.0508 32.5898 36.6191 32.5898 33.5254C32.5898 30.4316 33.4453 27.9707 35.1562 26.1426C36.8789 24.3145 39.1992 23.4004 42.1172 23.4004C45 23.4004 47.291 24.2734 48.9902 26.0195C50.7012 27.7656 51.5566 30.1035 51.5566 33.0332V34.791H38.6367V35.1777C38.6367 36.3262 38.9824 37.2578 39.6738 37.9727C40.377 38.6875 41.291 39.0449 42.416 39.0449C43.248 39.0449 43.9688 38.8574 44.5781 38.4824C45.1875 38.1074 45.6035 37.5977 45.8262 36.9531ZM55.5469 19.5684H61.7871V23.8574H65.2324V28.4453H61.7871V36.4785C61.7871 37.8027 62.5195 38.4648 63.9844 38.4648C64.5 38.4648 64.9102 38.4355 65.2148 38.377V42.8066C64.4766 42.959 63.5684 43.0352 62.4902 43.0352C60.0059 43.0352 58.2246 42.625 57.1465 41.8047C56.0801 40.9844 55.5469 39.6309 55.5469 37.7441V28.4453H52.9453V23.8574H55.5469V19.5684ZM76.7109 27.8301C75.7617 27.8301 74.959 28.1523 74.3027 28.7969C73.6582 29.4297 73.2949 30.2441 73.2129 31.2402H80.1738C80.1152 30.2207 79.7695 29.4004 79.1367 28.7793C78.5039 28.1465 77.6953 27.8301 76.7109 27.8301ZM80.3145 36.9531H85.9395C85.6348 38.9336 84.6621 40.5156 83.0215 41.6992C81.3809 42.8711 79.3125 43.457 76.8164 43.457C73.7695 43.457 71.3848 42.5781 69.6621 40.8203C67.9395 39.0508 67.0781 36.6191 67.0781 33.5254C67.0781 30.4316 67.9336 27.9707 69.6445 26.1426C71.3672 24.3145 73.6875 23.4004 76.6055 23.4004C79.4883 23.4004 81.7793 24.2734 83.4785 26.0195C85.1895 27.7656 86.0449 30.1035 86.0449 33.0332V34.791H73.125V35.1777C73.125 36.3262 73.4707 37.2578 74.1621 37.9727C74.8652 38.6875 75.7793 39.0449 76.9043 39.0449C77.7363 39.0449 78.457 38.8574 79.0664 38.4824C79.6758 38.1074 80.0918 37.5977 80.3145 36.9531ZM116.455 43V23.8574H122.52V27.4785H122.643C123.346 24.877 124.846 23.5762 127.143 23.5762C127.764 23.5762 128.291 23.6582 128.725 23.8223V29.1309C128.139 28.8965 127.477 28.7793 126.738 28.7793C125.426 28.7793 124.424 29.1367 123.732 29.8516C123.041 30.5664 122.695 31.5918 122.695 32.9277V43H116.455ZM130.676 43V23.8574H136.898V43H130.676ZM136.055 21.4316C135.445 22.0176 134.689 22.3105 133.787 22.3105C132.885 22.3105 132.123 22.0176 131.502 21.4316C130.893 20.8457 130.588 20.1191 130.588 19.252C130.588 18.3965 130.893 17.6758 131.502 17.0898C132.123 16.5039 132.885 16.2109 133.787 16.2109C134.689 16.2109 135.445 16.5039 136.055 17.0898C136.664 17.6641 136.969 18.3848 136.969 19.252C136.969 20.1191 136.664 20.8457 136.055 21.4316ZM148.377 36.6895H148.254L145.178 43H138.709L144.457 33.4902L138.727 23.8574H145.758L148.623 29.9746H148.746L151.559 23.8574H158.291L152.543 33.3496L158.273 43H151.541L148.377 36.6895Z" fill="#25252F"/>
<defs>
<filter id="filter0_f_62_137" x="80.2047" y="0.347656" width="53.2981" height="52.1902" filterUnits="userSpaceOnUse" color-interpolation-filters="sRGB">
<feFlood flood-opacity="0" result="BackgroundImageFix"/>
<feBlend mode="normal" in="SourceGraphic" in2="BackgroundImageFix" result="shape"/>
<feGaussianBlur stdDeviation="7" result="effect1_foregroundBlur_62_137"/>
</filter>
<linearGradient id="paint0_linear_62_137" x1="120" y1="12" x2="93" y2="40" gradientUnits="userSpaceOnUse">
<stop stop-color="#FFBA7B"/>
<stop offset="1" stop-color="#FB5454"/>
</linearGradient>
</defs>
</svg>
