<svg width="34" height="40" viewBox="0 0 34 40" fill="none" xmlns="http://www.w3.org/2000/svg">
<path d="M30.6033 10.1746C31.1048 7.0823 30.6033 4.98752 28.8983 3.09224C26.9926 0.997466 23.6829 0.0997049 19.3701 0.0997049H6.93331C6.03064 -4.64171e-05 5.32857 0.598461 5.12797 1.49622L0.0128436 34.2146C-0.0874531 34.9129 0.41403 35.5114 1.01581 35.5114H8.73865L8.23717 38.903C8.13687 39.5015 8.53806 40.0002 9.13984 40.0002H15.6591C16.4615 40.0002 17.0633 39.4017 17.1636 38.7035L17.2639 38.4042L18.4674 30.7234L18.5677 30.3243C18.668 29.5263 19.3701 29.0276 20.0722 29.0276H21.0751C27.3938 29.0276 32.3084 26.5338 33.7125 19.1522C34.3143 16.0599 34.0134 13.5661 32.4087 11.6709C31.9072 10.9726 31.3054 10.4738 30.6033 10.1746Z" fill="#009CDE"/>
<path d="M30.6033 10.1746C31.1048 7.0823 30.6033 4.98752 28.8983 3.09224C26.9926 0.997466 23.6829 0.0997049 19.3701 0.0997049H6.93331C6.03064 -4.64171e-05 5.32857 0.598461 5.12797 1.49622L0.0128436 34.2146C-0.0874531 34.9129 0.41403 35.5114 1.01581 35.5114H8.73865L10.6443 23.3418L10.544 23.7408C10.6443 22.843 11.4467 22.2445 12.3493 22.2445H15.96C23.1814 22.2445 28.798 19.3517 30.4027 10.9726C30.503 10.5736 30.6033 10.3741 30.6033 10.1746Z" fill="#012169"/>
<path d="M12.7505 10.1746C12.8508 9.67588 13.1517 9.27687 13.6532 8.97762C13.8538 8.87786 14.0544 8.77811 14.3553 8.77811H24.084C25.2876 8.77811 26.2906 8.87786 27.2935 8.97762C27.5944 8.97762 27.8953 9.07737 28.0959 9.17712C28.3968 9.27687 28.5974 9.27687 28.8983 9.37662C28.9986 9.37662 29.0989 9.47637 29.2995 9.47637C29.801 9.67588 30.2021 9.77563 30.6033 10.0749C31.1048 6.98259 30.6033 4.88781 28.8983 2.99254C26.9926 0.897762 23.6829 0 19.3701 0H6.93331C6.03064 0 5.32857 0.598508 5.12797 1.49627L0.0128436 34.2147C-0.0874531 34.913 0.41403 35.5115 1.01581 35.5115H8.73865L10.6443 23.3418C10.6443 23.2421 12.7505 10.1746 12.7505 10.1746Z" fill="#003087"/>
</svg>
